<svg t="1686937230540" class="icon" viewBox="0 0 1024 1024" version="1.1" xmlns="http://www.w3.org/2000/svg" p-id="1460" width="200" height="200"><path d="M1023.032889 365.568a170.410667 170.410667 0 0 0-170.382222-169.813333h-267.662223l24.689778 97.365333 229.688889 49.948444a48.64 48.64 0 0 1 37.603556 45.368889c0.113778 0.568889 0.113778 246.954667 0 247.552a48.64 48.64 0 0 1-37.603556 45.368889l-229.688889 49.92-24.689778 97.507556h267.662223a170.496 170.496 0 0 0 170.382222-169.813334V365.539556zM184.519111 681.585778a48.668444 48.668444 0 0 1-37.603555-45.368889c-0.113778-0.682667-0.113778-246.983111 0-247.552a48.64 48.64 0 0 1 37.603555-45.368889l229.717333-49.948444 24.689778-97.365334H171.150222a170.410667 170.410667 0 0 0-170.382222 169.813334v293.603555a170.496 170.496 0 0 0 170.382222 169.813333h267.662222l-24.689777-97.450666-229.603556-50.176z m229.603556-181.475556h195.413333v24.32h-195.413333v-24.348444z" fill="#000000" fill-opacity=".85" p-id="1461"></path></svg>