<svg t="1686936871765" class="icon" viewBox="0 0 1024 1024" version="1.1" xmlns="http://www.w3.org/2000/svg" p-id="2379"
     width="200" height="200">
    <path d="M512 1024C229.230592 1024 0 794.769408 0 512S229.230592 0 512 0s512 229.230592 512 512-229.230592 512-512 512zM255.234048 574.787584c34.95936 0 63.29856-28.3392 63.29856-63.29856 0-34.958336-28.340224-63.297536-63.29856-63.297536-34.958336 0-63.297536 28.3392-63.297536 63.297536 0 34.95936 28.3392 63.29856 63.297536 63.29856z m256.256 0c34.958336 0 63.297536-28.3392 63.297536-63.29856 0-34.958336-28.3392-63.297536-63.29856-63.297536-34.958336 0-63.297536 28.3392-63.297536 63.297536 0 34.95936 28.3392 63.29856 63.297536 63.29856z m257.275904 0c34.958336 0 63.297536-28.3392 63.297536-63.29856 0-34.958336-28.3392-63.297536-63.297536-63.297536-34.95936 0-63.29856 28.3392-63.29856 63.297536 0 34.95936 28.340224 63.29856 63.29856 63.29856z"
          fill="#666666" p-id="2380">
    </path>
</svg>